<?xml version="1.0" encoding="utf-8"?>
<svg version="1.1" id="main" xmlns="http://www.w3.org/2000/svg" xmlns:xlink="http://www.w3.org/1999/xlink" x="0px" y="0px"
	 viewBox="0 0 512 512" style="enable-background:new 0 0 512 512;" xml:space="preserve">
<style type="text/css">
	.st0{fill:#5E4095;}
	.st1{fill:#F7931E;}
	.st2{fill:#2C2255;}
	.st3{fill:none;}
	.st4{fill:url(#SVGID_1_);}
	.st5{fill:#FFFFFF;}
</style>
<polygon class="st0" points="-16.42,177.27 66.58,177.45 66.58,177.45 "/>
<polygon class="st0" points="202.35,177.75 66.58,177.45 66.58,177.45 421.11,178.23 "/>
<path class="st1" d="M52.36,258.21c0-104.71,68.37-193.44,162.89-224.02C95.58,38.9,0,137.39,0,258.21s95.58,219.31,215.25,224.02
	C120.73,451.65,52.36,362.92,52.36,258.21z"/>
<circle class="st2" cx="287.79" cy="258.21" r="224.21"/>
<line class="st3" x1="265.75" y1="339.75" x2="266" y2="260.25"/>
<line class="st3" x1="265.88" y1="212.75" x2="265.88" y2="189.25"/>
<line class="st3" x1="265.75" y1="339.75" x2="222" y2="339.75"/>
<line class="st3" x1="222" y1="330" x2="222" y2="339.75"/>
<line class="st3" x1="236" y1="330" x2="222" y2="330"/>
<line class="st3" x1="234.75" y1="319.75" x2="234.75" y2="330"/>
<linearGradient id="SVGID_1_" gradientUnits="userSpaceOnUse" x1="287.7861" y1="429.7363" x2="287.7861" y2="91.6352">
	<stop  offset="0" style="stop-color:#463787"/>
	<stop  offset="1" style="stop-color:#2C2255"/>
</linearGradient>
<circle class="st4" cx="287.79" cy="260.69" r="169.05"/>
<g>
	<path class="st5" d="M311.48,374.74c-13.08,0-24.76,0-36.85,0c0-76.39,0-152.4,0-228.52c0.26-0.22,0.63-0.83,1-0.83
		c26.51,0.19,53.2-1.45,79.5,1.04c62.69,5.93,76.68,58.34,63.1,101.06c-9.34,29.38-34.26,46.54-68.39,47.57
		c-12.47,0.37-24.96,0.06-38.35,0.06C311.48,321.83,311.48,347.95,311.48,374.74z M311.7,181.49c0,25.73,0,51.61,0,77.46
		c14.88,0,29.48,1.39,43.7-0.35c18.26-2.23,30.67-19.26,30.9-38.9c0.22-18.7-11.48-35.77-28.67-37.84
		C342.68,180.06,327.33,181.49,311.7,181.49z"/>
	<path class="st5" d="M244.56,374.41c-21.49,0-42.67,0-64.44,0c0-4.52,0-8.88,0-14.16c5.93-0.37,12.01-0.75,18.55-1.15
		c0-5.33,0-10.19,0-15.8c-6.1,0-12,0-18.5,0c0-5.55,0-10.38,0-16.26c7.45,0,14.88-0.23,22.29,0.08c4.82,0.2,6.85-1.44,6.67-6.39
		c-0.25-7-0.32-14.03,0.04-21.03c0.27-5.28-1.5-7.72-6.78-9.58c-30.89-10.86-50.49-39.67-49.76-72.2
		c0.71-31.32,22-60.04,52.63-68.36c10.81-2.94,22.68-2.08,34.08-2.6c4.06-0.19,6.08,1.98,5.91,6.61c-0.36,9.74-0.11,19.5-0.11,30.02
		c-22.65-6.99-41.72-3.13-53.53,18.44c-8.08,14.75-6.03,29.62,4.19,42.93c10.87,14.16,26.41,17.81,48.76,11.8
		C244.56,295.77,244.56,334.63,244.56,374.41z"/>
</g>
</svg>
