<svg id="Layer_1" data-name="Layer 1" xmlns="http://www.w3.org/2000/svg" viewBox="0 0 404 30"><defs><style>.cls-1{fill:#000;}</style></defs><title>text</title><path class="cls-1" d="M12.47,2.35A6.71,6.71,0,0,1,14.6,7.64a8.64,8.64,0,0,1-.78,3.65A6.31,6.31,0,0,1,11.29,14,8.35,8.35,0,0,1,6.88,15.1H3.46v8.51H.35V.47H6.56A8.64,8.64,0,0,1,12.47,2.35Zm-2.88,9a4.11,4.11,0,0,0,1.49-1.71,4.81,4.81,0,0,0,.45-2,4.5,4.5,0,0,0-1.09-3A4.22,4.22,0,0,0,7,3.44H3.46v8.65H6.88A4.74,4.74,0,0,0,9.59,11.38Z" transform="translate(-0.35 -0.21)"/><path class="cls-1" d="M32.27,10.36V23.61h-3V21.44a6.9,6.9,0,0,1-2.05,1.71,6,6,0,0,1-3,.79,7.13,7.13,0,0,1-3.41-.82,6,6,0,0,1-2.41-2.39A7.58,7.58,0,0,1,17.51,17a7.61,7.61,0,0,1,.92-3.8,6.4,6.4,0,0,1,2.46-2.49,6.83,6.83,0,0,1,3.44-.88,5.71,5.71,0,0,1,3,.73,6.09,6.09,0,0,1,2,1.92l.22-2.11Zm-4.46,10.2a4.11,4.11,0,0,0,1.49-2.48V15.45a4.12,4.12,0,0,0-1.6-2.29,4.63,4.63,0,0,0-2.79-.88,4.27,4.27,0,0,0-2.19.58,4.13,4.13,0,0,0-1.6,1.61,4.85,4.85,0,0,0,0,4.69,4.72,4.72,0,0,0,1.63,1.69,4.3,4.3,0,0,0,2.25.62A4.42,4.42,0,0,0,27.81,20.56Z" transform="translate(-0.35 -0.21)"/><path class="cls-1" d="M38.41,23.39a5.23,5.23,0,0,1-2.17-1.5l1.28-1.73a6.55,6.55,0,0,0,1.69,1.18,4,4,0,0,0,1.74.42,3.21,3.21,0,0,0,1.73-.42,1.39,1.39,0,0,0,.67-1.28A1.5,1.5,0,0,0,42.94,19a2.76,2.76,0,0,0-.95-.61c-.35-.12-.94-.32-1.78-.57q-3.39-1.09-3.39-3.88a3.82,3.82,0,0,1,1.23-2.85,4.76,4.76,0,0,1,3.44-1.18,8.25,8.25,0,0,1,2.5.35,6.2,6.2,0,0,1,2,1.12l-1.19,1.83a3.63,3.63,0,0,0-1.29-.87A4.58,4.58,0,0,0,42,12a2.68,2.68,0,0,0-1.54.43,1.36,1.36,0,0,0-.64,1.17,1.34,1.34,0,0,0,.42,1,2.67,2.67,0,0,0,.86.58c.3.11.89.31,1.76.59a6.7,6.7,0,0,1,2.55,1.41,3,3,0,0,1,.91,2.33A4.14,4.14,0,0,1,45,22.65a5.37,5.37,0,0,1-3.81,1.25A7.69,7.69,0,0,1,38.41,23.39Z" transform="translate(-0.35 -0.21)"/><path class="cls-1" d="M51.47,23.39a5.13,5.13,0,0,1-2.16-1.5l1.28-1.73a6.34,6.34,0,0,0,1.68,1.18,4,4,0,0,0,1.74.42,3.21,3.21,0,0,0,1.73-.42,1.4,1.4,0,0,0,.68-1.28A1.47,1.47,0,0,0,56,19a2.67,2.67,0,0,0-1-.61c-.35-.12-.94-.32-1.77-.57q-3.41-1.09-3.4-3.88a3.79,3.79,0,0,1,1.24-2.85,4.76,4.76,0,0,1,3.44-1.18,8.29,8.29,0,0,1,2.5.35,6.25,6.25,0,0,1,2,1.12l-1.18,1.83a3.67,3.67,0,0,0-1.3-.87A4.52,4.52,0,0,0,55.1,12a2.62,2.62,0,0,0-1.53.43,1.34,1.34,0,0,0-.64,1.17,1.33,1.33,0,0,0,.41,1,2.7,2.7,0,0,0,.87.58c.29.11.88.31,1.76.59a6.65,6.65,0,0,1,2.54,1.41,3,3,0,0,1,.91,2.33,4.1,4.1,0,0,1-1.34,3.17,5.37,5.37,0,0,1-3.81,1.25A7.73,7.73,0,0,1,51.47,23.39Z" transform="translate(-0.35 -0.21)"/><path class="cls-1" d="M77.19,10.36V23.61h-3V21.44a6.9,6.9,0,0,1-2,1.71,6,6,0,0,1-3,.79,7.13,7.13,0,0,1-3.41-.82,6,6,0,0,1-2.41-2.39A7.58,7.58,0,0,1,62.43,17a7.61,7.61,0,0,1,.92-3.8,6.47,6.47,0,0,1,2.46-2.49,6.83,6.83,0,0,1,3.44-.88,5.69,5.69,0,0,1,3,.73,6.09,6.09,0,0,1,2,1.92l.22-2.11Zm-4.46,10.2a4.11,4.11,0,0,0,1.49-2.48V15.45a4.12,4.12,0,0,0-1.6-2.29,4.63,4.63,0,0,0-2.79-.88,4.27,4.27,0,0,0-2.19.58A4.13,4.13,0,0,0,66,14.47a4.74,4.74,0,0,0,1.65,6.38,4.27,4.27,0,0,0,2.24.62A4.4,4.4,0,0,0,72.73,20.56Z" transform="translate(-0.35 -0.21)"/><path class="cls-1" d="M96.37,10.36V23.71a6,6,0,0,1-.93,3.3,6.49,6.49,0,0,1-2.64,2.34,8.87,8.87,0,0,1-4,.86,8.22,8.22,0,0,1-3.48-.67,12,12,0,0,1-2.93-2l1.76-2.05a9,9,0,0,0,2.18,1.56,5.44,5.44,0,0,0,2.4.52,5,5,0,0,0,3.41-1,3.71,3.71,0,0,0,1.23-2.85l0-2.5a5.4,5.4,0,0,1-2.17,2,6.93,6.93,0,0,1-3.28.76A6.4,6.4,0,0,1,84.59,23a7,7,0,0,1-3.36-6.09,7.07,7.07,0,0,1,.94-3.63,6.93,6.93,0,0,1,2.55-2.55,6.7,6.7,0,0,1,3.42-.92,7.28,7.28,0,0,1,3.14.67,5.06,5.06,0,0,1,2.15,1.73l.22-1.86ZM91.76,20.54a4.31,4.31,0,0,0,1.64-2.43V15.48a4.39,4.39,0,0,0-1.7-2.32,4.84,4.84,0,0,0-2.88-.88,4.51,4.51,0,0,0-3.27,1.28,4.39,4.39,0,0,0-1.31,3.27,4.57,4.57,0,0,0,4.58,4.64A4.78,4.78,0,0,0,91.76,20.54Z" transform="translate(-0.35 -0.21)"/><path class="cls-1" d="M111,20.22l1.37,2.21a9,9,0,0,1-2.29,1.1,7.59,7.59,0,0,1-2.38.41,7.84,7.84,0,0,1-3.86-.92,6.42,6.42,0,0,1-2.55-2.51,7.36,7.36,0,0,1-.89-3.62,6.79,6.79,0,0,1,1-3.57,7.09,7.09,0,0,1,2.68-2.56,7.5,7.5,0,0,1,3.71-.94,6.33,6.33,0,0,1,4.34,1.52,7.81,7.81,0,0,1,2.39,4.24L104,19.26a4.14,4.14,0,0,0,1.56,1.55,4.31,4.31,0,0,0,2.22.56A5.41,5.41,0,0,0,111,20.22Zm-6.47-6.75a4.61,4.61,0,0,0-1.19,3.26,4.71,4.71,0,0,0,0,.74l7.71-2.85a4.36,4.36,0,0,0-1.36-1.76,3.51,3.51,0,0,0-2.19-.68A3.9,3.9,0,0,0,104.54,13.47Z" transform="translate(-0.35 -0.21)"/><path class="cls-1" d="M132.17.47V20.61H144v3H129.06V.47Z" transform="translate(-0.35 -0.21)"/><path class="cls-1" d="M148.56,4.4a1.85,1.85,0,0,1,1.25-.48A1.76,1.76,0,0,1,151,4.4a1.52,1.52,0,0,1,.53,1.19A1.5,1.5,0,0,1,151,6.77a1.76,1.76,0,0,1-1.23.48,1.85,1.85,0,0,1-1.25-.48A1.51,1.51,0,0,1,148,5.59,1.53,1.53,0,0,1,148.56,4.4Zm2.66,6V23.61h-3V10.36Z" transform="translate(-0.35 -0.21)"/><path class="cls-1" d="M165,23.52a7.79,7.79,0,0,1-2.52.42,8,8,0,0,1-3.79-.87,6.17,6.17,0,0,1-2.56-2.45,7.22,7.22,0,0,1-.92-3.67,6.88,6.88,0,0,1,1-3.63,6.64,6.64,0,0,1,2.57-2.45,7.2,7.2,0,0,1,3.45-.86,7.55,7.55,0,0,1,5,1.66l-1.5,1.95a6.73,6.73,0,0,0-1.48-.81,4.6,4.6,0,0,0-1.79-.34,4.12,4.12,0,0,0-2.16.59,4.28,4.28,0,0,0-1.54,1.62,4.71,4.71,0,0,0-.56,2.27,4.45,4.45,0,0,0,2.21,3.91,4.75,4.75,0,0,0,5.19-.35l1.53,1.86A6.64,6.64,0,0,1,165,23.52Z" transform="translate(-0.35 -0.21)"/><path class="cls-1" d="M180.45,20.22l1.38,2.21a9.12,9.12,0,0,1-2.29,1.1,7.65,7.65,0,0,1-2.39.41A7.8,7.8,0,0,1,173.3,23a6.42,6.42,0,0,1-2.55-2.51,7.25,7.25,0,0,1-.9-3.62,6.8,6.8,0,0,1,1-3.57,7.06,7.06,0,0,1,2.67-2.56,7.53,7.53,0,0,1,3.72-.94,6.35,6.35,0,0,1,4.34,1.52,7.8,7.8,0,0,1,2.38,4.24l-10.5,3.68A4.12,4.12,0,0,0,175,20.81a4.35,4.35,0,0,0,2.23.56A5.36,5.36,0,0,0,180.45,20.22ZM174,13.47a4.6,4.6,0,0,0-1.18,3.26,6.86,6.86,0,0,0,0,.74l7.72-2.85a4.44,4.44,0,0,0-1.36-1.76,3.52,3.52,0,0,0-2.2-.68A3.92,3.92,0,0,0,174,13.47Z" transform="translate(-0.35 -0.21)"/><path class="cls-1" d="M199,11a3.83,3.83,0,0,1,1.25,2.87v9.79h-3V14.84a2.7,2.7,0,0,0-.68-1.76,2.46,2.46,0,0,0-1.82-.67,3.59,3.59,0,0,0-2.91,1.41,5.46,5.46,0,0,0-1.16,3.58v6.21h-3V10.36h2.69l.19,2.56a5.23,5.23,0,0,1,2.11-2.26,6.38,6.38,0,0,1,3.23-.81A4.44,4.44,0,0,1,199,11Z" transform="translate(-0.35 -0.21)"/><path class="cls-1" d="M206.31,23.39a5.23,5.23,0,0,1-2.17-1.5l1.29-1.73a6.34,6.34,0,0,0,1.68,1.18,4,4,0,0,0,1.74.42,3.21,3.21,0,0,0,1.73-.42,1.39,1.39,0,0,0,.67-1.28,1.5,1.5,0,0,0-.41-1.09,2.76,2.76,0,0,0-1-.61c-.35-.12-.94-.32-1.78-.57q-3.39-1.09-3.39-3.88A3.82,3.82,0,0,1,206,11.06a4.77,4.77,0,0,1,3.45-1.18,8.23,8.23,0,0,1,2.49.35,6.2,6.2,0,0,1,2,1.12l-1.18,1.83a3.76,3.76,0,0,0-1.3-.87,4.58,4.58,0,0,0-1.49-.35,2.68,2.68,0,0,0-1.54.43,1.36,1.36,0,0,0-.64,1.17,1.34,1.34,0,0,0,.42,1,2.67,2.67,0,0,0,.86.58c.3.11.89.31,1.76.59a6.7,6.7,0,0,1,2.55,1.41,3,3,0,0,1,.91,2.33,4.14,4.14,0,0,1-1.34,3.17,5.37,5.37,0,0,1-3.81,1.25A7.69,7.69,0,0,1,206.31,23.39Z" transform="translate(-0.35 -0.21)"/><path class="cls-1" d="M218.75,4.4a1.84,1.84,0,0,1,2.48,0,1.55,1.55,0,0,1,.52,1.19,1.53,1.53,0,0,1-.52,1.18,1.84,1.84,0,0,1-2.48,0,1.49,1.49,0,0,1-.55-1.18A1.51,1.51,0,0,1,218.75,4.4Zm2.65,6V23.61h-3V10.36Z" transform="translate(-0.35 -0.21)"/><path class="cls-1" d="M237.89,11a3.8,3.8,0,0,1,1.25,2.87v9.79h-3V14.84a2.7,2.7,0,0,0-.67-1.76,2.5,2.5,0,0,0-1.83-.67,3.61,3.61,0,0,0-2.91,1.41,5.46,5.46,0,0,0-1.15,3.58v6.21h-3V10.36h2.69l.19,2.56a5.23,5.23,0,0,1,2.11-2.26,6.39,6.39,0,0,1,3.24-.81A4.43,4.43,0,0,1,237.89,11Z" transform="translate(-0.35 -0.21)"/><path class="cls-1" d="M258.29,10.36V23.71a6,6,0,0,1-.93,3.3,6.56,6.56,0,0,1-2.64,2.34,8.92,8.92,0,0,1-4,.86,8.25,8.25,0,0,1-3.48-.67,12.17,12.17,0,0,1-2.93-2l1.77-2.05a8.91,8.91,0,0,0,2.17,1.56,5.48,5.48,0,0,0,2.4.52,5,5,0,0,0,3.41-1,3.72,3.72,0,0,0,1.24-2.85l0-2.5a5.31,5.31,0,0,1-2.16,2,7,7,0,0,1-3.28.76A6.41,6.41,0,0,1,246.5,23a7,7,0,0,1-2.45-2.53,7.41,7.41,0,0,1,0-7.19,7,7,0,0,1,2.54-2.55,6.71,6.71,0,0,1,3.43-.92,7.31,7.31,0,0,1,3.14.67,5,5,0,0,1,2.14,1.73l.23-1.86Zm-4.61,10.18a4.29,4.29,0,0,0,1.63-2.43V15.48a4.34,4.34,0,0,0-1.7-2.32,4.84,4.84,0,0,0-2.88-.88,4.53,4.53,0,0,0-3.27,1.28,4.39,4.39,0,0,0-1.31,3.27,4.53,4.53,0,0,0,.61,2.33,4.59,4.59,0,0,0,1.67,1.69,4.48,4.48,0,0,0,2.3.62A4.83,4.83,0,0,0,253.68,20.54Z" transform="translate(-0.35 -0.21)"/><path class="cls-1" d="M274.49,6.16a12.14,12.14,0,0,1,4.3-4.33,11.55,11.55,0,0,1,11.8,0,12.17,12.17,0,0,1,4.34,4.33,11.34,11.34,0,0,1,1.62,5.9A11.53,11.53,0,0,1,295,18a12,12,0,0,1-4.34,4.31,11.77,11.77,0,0,1-17.72-10.23A11.42,11.42,0,0,1,274.49,6.16Zm2.75,10.32a8.71,8.71,0,0,0,3.15,3.2,8.47,8.47,0,0,0,4.38,1.18,8.3,8.3,0,0,0,4.33-1.17,8.39,8.39,0,0,0,3.11-3.2,8.89,8.89,0,0,0,1.14-4.43,8.9,8.9,0,0,0-1.16-4.45,8.55,8.55,0,0,0-3.13-3.24,8.37,8.37,0,0,0-4.36-1.18,8.23,8.23,0,0,0-4.35,1.2,8.57,8.57,0,0,0-3.13,3.25,9.09,9.09,0,0,0-1.13,4.45A8.7,8.7,0,0,0,277.24,16.48Z" transform="translate(-0.35 -0.21)"/><path class="cls-1" d="M312.78,10.71a6.4,6.4,0,0,1,2.37,2.52A7.71,7.71,0,0,1,316,17a7.13,7.13,0,0,1-.93,3.67,6.42,6.42,0,0,1-2.56,2.45,7.67,7.67,0,0,1-3.66.87,6.29,6.29,0,0,1-2.75-.63A5.71,5.71,0,0,1,304,21.63V30h-3V10.14h2.59l.26,2.24a7.92,7.92,0,0,1,2.45-1.86,6.87,6.87,0,0,1,3.09-.7A6.4,6.4,0,0,1,312.78,10.71Zm-2.16,10.23a4.47,4.47,0,0,0,1.71-1.63A4.31,4.31,0,0,0,313,17a4.68,4.68,0,0,0-.59-2.37A4.33,4.33,0,0,0,310.76,13a4.41,4.41,0,0,0-2.27-.61,4.55,4.55,0,0,0-2.9.95A4.43,4.43,0,0,0,304,15.83V18a3.94,3.94,0,0,0,1.46,2.52,4.34,4.34,0,0,0,2.83,1A4.68,4.68,0,0,0,310.62,20.94Z" transform="translate(-0.35 -0.21)"/><path class="cls-1" d="M329.46,20.22l1.38,2.21a9,9,0,0,1-2.29,1.1,7.65,7.65,0,0,1-2.39.41,7.8,7.8,0,0,1-3.85-.92,6.42,6.42,0,0,1-2.55-2.51,7.25,7.25,0,0,1-.9-3.62,6.8,6.8,0,0,1,1-3.57,7.06,7.06,0,0,1,2.67-2.56,7.53,7.53,0,0,1,3.72-.94,6.35,6.35,0,0,1,4.34,1.52A7.74,7.74,0,0,1,333,15.58l-10.5,3.68A4.12,4.12,0,0,0,324,20.81a4.35,4.35,0,0,0,2.23.56A5.36,5.36,0,0,0,329.46,20.22ZM323,13.47a4.56,4.56,0,0,0-1.19,3.26,6.86,6.86,0,0,0,0,.74l7.72-2.85a4.44,4.44,0,0,0-1.36-1.76,3.52,3.52,0,0,0-2.2-.68A3.88,3.88,0,0,0,323,13.47Z" transform="translate(-0.35 -0.21)"/><path class="cls-1" d="M341,11.58a7,7,0,0,1,2-1.28,5.33,5.33,0,0,1,1.85-.48l-.12,3a4.84,4.84,0,0,0-2.61.58,4.8,4.8,0,0,0-2.49,4.19v6.05h-3V10.36h2.65l.23,3.14A5.88,5.88,0,0,1,341,11.58Z" transform="translate(-0.35 -0.21)"/><path class="cls-1" d="M362,10.36V23.61h-3V21.44a6.85,6.85,0,0,1-2,1.71,6,6,0,0,1-3.05.79,7.16,7.16,0,0,1-3.41-.82,6,6,0,0,1-2.4-2.39,7.58,7.58,0,0,1-.88-3.74,7.71,7.71,0,0,1,.91-3.8,6.43,6.43,0,0,1,2.47-2.49,6.83,6.83,0,0,1,3.44-.88,5.71,5.71,0,0,1,2.95.73,6,6,0,0,1,2,1.92l.23-2.11Zm-4.46,10.2A4,4,0,0,0,359,18.08V15.45a4,4,0,0,0-1.6-2.29,4.6,4.6,0,0,0-2.78-.88,4.33,4.33,0,0,0-2.2.58,4.26,4.26,0,0,0-1.6,1.61,4.75,4.75,0,0,0-.59,2.36,4.53,4.53,0,0,0,.61,2.33,4.72,4.72,0,0,0,1.63,1.69,4.3,4.3,0,0,0,2.24.62A4.43,4.43,0,0,0,357.53,20.56Z" transform="translate(-0.35 -0.21)"/><path class="cls-1" d="M371.47,4.53v5.86h3.62v2.37h-3.62V23.61h-3V12.76H366V10.39h2.43V4.53Z" transform="translate(-0.35 -0.21)"/><path class="cls-1" d="M378.5,13.29a6.76,6.76,0,0,1,2.62-2.55,7.72,7.72,0,0,1,3.8-.92,7.51,7.51,0,0,1,3.76.92,6.69,6.69,0,0,1,2.56,2.53,7.12,7.12,0,0,1,.91,3.59,7.19,7.19,0,0,1-.91,3.6A6.59,6.59,0,0,1,388.66,23a7.68,7.68,0,0,1-3.81.93,8,8,0,0,1-3.74-.88,6.52,6.52,0,0,1-2.61-2.49,7.13,7.13,0,0,1-.95-3.71A7,7,0,0,1,378.5,13.29Zm2.62,5.91a4.33,4.33,0,0,0,1.54,1.66,4,4,0,0,0,2.16.61,4.05,4.05,0,0,0,3.08-1.31,4.64,4.64,0,0,0,1.21-3.27,4.68,4.68,0,0,0-1.21-3.28,4.2,4.2,0,0,0-5.26-.71,4.52,4.52,0,0,0-1.52,1.69,4.86,4.86,0,0,0-.56,2.3A4.93,4.93,0,0,0,381.12,19.2Z" transform="translate(-0.35 -0.21)"/><path class="cls-1" d="M400.49,11.58a7.13,7.13,0,0,1,2-1.28,5.43,5.43,0,0,1,1.86-.48l-.13,3a4.88,4.88,0,0,0-2.61.58,4.65,4.65,0,0,0-1.82,1.78,4.7,4.7,0,0,0-.66,2.41v6.05h-3V10.36h2.65L399,13.5A5.74,5.74,0,0,1,400.49,11.58Z" transform="translate(-0.35 -0.21)"/></svg>